<?xml version="1.0" encoding="iso-8859-1"?>
<!-- Generator: Adobe Illustrator 16.0.0, SVG Export Plug-In . SVG Version: 6.00 Build 0)  -->
<!DOCTYPE svg PUBLIC "-//W3C//DTD SVG 1.1//EN" "http://www.w3.org/Graphics/SVG/1.1/DTD/svg11.dtd">
<svg version="1.1" id="Capa_1" xmlns="http://www.w3.org/2000/svg" xmlns:xlink="http://www.w3.org/1999/xlink" x="0px" y="0px"
	 width="85.114px" height="85.113px" viewBox="0 0 85.114 85.113" style="enable-background:new 0 0 85.114 85.113;"
	 xml:space="preserve">
<g>
	<path d="M59.02,79.59c1.109-1.847,2.521-5.553-0.646-9.48c0.448-0.639,0.732-1.459,0.553-2.364
		c-0.397-2.133-2.236-2.929-3.302-2.929h-1.246c-2.376-5.133-4.151-12.899-4.464-19.58c0.008-0.057,0.012-0.113,0.012-0.172
		c0-0.07-0.006-0.141-0.018-0.207l-0.1-8.793c1.541-0.088,2.769-1.409,2.769-3.02c0-0.899-0.38-1.71-0.981-2.266
		c2.465-3.31,3.082-8.212,1.871-10.994c-1.531-3.498-3.139-5.809-5.57-9.306c-0.633-0.913-1.325-1.908-2.09-3.029
		c0.778-0.806,1.219-1.931,1.219-3.2c0-1.224-0.459-2.275-1.225-3.02C45.061,0.472,44.031,0,42.889,0
		c-0.583,0-1.133,0.126-1.633,0.346c-0.81,0.313-1.443,0.888-1.858,1.653c-0.365,0.611-0.588,1.317-0.588,2.08
		c0,0.223,0.031,0.438,0.065,0.651c0.086,1.261,0.502,2.116,1.018,2.695c-0.289,0.422-0.596,0.87-0.903,1.318
		c-0.821,1.197-1.644,2.398-2.135,3.138c-0.175,0.264-0.235,0.582-0.175,0.886c-0.268,0.082-0.502,0.259-0.656,0.504
		c-0.388,0.618-0.8,1.223-1.214,1.829c-0.979,1.435-1.99,2.918-2.759,4.683c-1.315,3.01-0.335,7.84,2.037,10.998
		c-0.599,0.556-0.976,1.363-0.976,2.262c0,1.589,1.194,2.896,2.706,3.015l-0.068,8.954c-0.247,5.727-1.523,13.867-4.348,19.805
		h-1.594c-0.863,0-2.782,0.727-3.202,2.955c-0.184,0.906,0.08,1.75,0.539,2.408c-2.963,3.836-1.899,7.459-0.995,9.283
		c-0.353,0.387-0.712,0.87-0.926,1.4c-0.413,1.037-0.436,2.734-0.436,3.064c0,0.313,0.124,0.615,0.346,0.838
		c0.223,0.223,0.524,0.348,0.838,0.348h33.169c0.326,0,0.637-0.135,0.859-0.369c0.225-0.236,0.34-0.555,0.323-0.878
		c-0.011-0.196-0.113-1.94-0.466-2.912C59.682,80.469,59.363,79.997,59.02,79.59z M38.117,45.074l0.077-10.181
		c0.002-0.315-0.122-0.619-0.344-0.843c-0.222-0.225-0.524-0.351-0.84-0.351h-0.966c-0.311,0-0.563-0.294-0.563-0.655
		c0-0.361,0.253-0.667,0.553-0.667c0.486,0,0.922-0.297,1.101-0.748c0.179-0.452,0.063-0.968-0.292-1.301
		c-2.604-2.439-3.618-7.315-2.622-9.596c0.68-1.562,1.586-2.89,2.545-4.296c0.022-0.032,0.043-0.063,0.065-0.095l1.318,2.919
		c0.23,0.836,0.958,1.68,2.158,1.68h0.002c0.9-0.025,1.317-0.522,1.485-0.815c0.437-0.764,0.094-1.59-0.061-1.891l-2.542-5.585
		c0.48-0.712,1.117-1.64,1.751-2.565c0.476-0.694,0.947-1.383,1.356-1.983c0.194,0.028,0.387,0.06,0.589,0.06
		c0.172,0,0.338-0.03,0.506-0.052c0.949,1.406,1.797,2.626,2.559,3.722c2.352,3.383,3.906,5.617,5.343,8.901
		c1.017,2.332,0.081,7.219-2.458,9.597c-0.354,0.333-0.47,0.849-0.292,1.301c0.179,0.451,0.615,0.748,1.103,0.748
		c0.304,0,0.561,0.306,0.561,0.667c0,0.361-0.252,0.655-0.562,0.655h-1.034c-0.316,0-0.62,0.127-0.843,0.352
		c-0.223,0.226-0.346,0.529-0.342,0.846l0.113,10.067c-0.004,0.051-0.006,0.1-0.003,0.149c0.272,6.479,1.894,14.012,4.129,19.421
		H34.127C36.697,58.438,37.875,50.666,38.117,45.074z M56.695,80.572c0.46,0.436,0.837,0.916,0.938,1.193
		c0.079,0.219,0.149,0.586,0.204,0.98H27.225c0.044-0.402,0.109-0.779,0.198-1.001c0.125-0.313,0.506-0.769,0.971-1.159
		c0.455-0.384,0.554-1.045,0.232-1.546c-0.806-1.253-2.323-4.55,0.984-8.106c0.236-0.254,0.349-0.599,0.309-0.942
		c-0.04-0.345-0.229-0.653-0.517-0.847c-0.15-0.102-0.561-0.483-0.473-0.916c0.176-0.936,0.9-1.043,0.879-1.043h25.794
		c0.009,0,0.824,0.076,0.998,1.006c0.069,0.354-0.275,0.746-0.524,0.925c-0.282,0.2-0.462,0.515-0.493,0.858
		s0.092,0.686,0.333,0.933c3.327,3.407,1.835,6.53,0.651,8.089C56.201,79.477,56.256,80.157,56.695,80.572z M47.653,26.86
		c0.949-0.848,1.441-1.823,1.5-2.985c0.15-2.969-2.614-6.026-2.643-6.057c-0.293-0.322-0.272-0.82,0.049-1.115
		c0.322-0.294,0.819-0.274,1.115,0.047c0.131,0.145,3.236,3.565,3.055,7.199c-0.078,1.585-0.76,2.961-2.025,4.089
		c-0.15,0.135-0.338,0.2-0.525,0.2c-0.217,0-0.434-0.089-0.59-0.264C47.299,27.649,47.328,27.15,47.653,26.86z"/>
</g>
<g>
</g>
<g>
</g>
<g>
</g>
<g>
</g>
<g>
</g>
<g>
</g>
<g>
</g>
<g>
</g>
<g>
</g>
<g>
</g>
<g>
</g>
<g>
</g>
<g>
</g>
<g>
</g>
<g>
</g>
</svg>
