<svg id="Capa_1" enable-background="new 0 0 512 512" height="512" viewBox="0 0 512 512" width="512" xmlns="http://www.w3.org/2000/svg"><ellipse cx="256" cy="174.674" rx="59.465" ry="32.21"/><path d="m137 495.779v16.221h238v-16.221c0-18.803-15.243-34.046-34.046-34.046h-169.908c-18.803 0-34.046 15.243-34.046 34.046z"/><path d="m175.912 400.181h160.176v30.776h-160.176z"/><path d="m336.017 357.779s-47.901.342-47.901-64.169v-60.096c-9.905 2.203-20.744 3.427-32.115 3.427s-22.211-1.223-32.116-3.427v60.096c0 64.511-47.901 64.169-47.901 64.169v11.626h160.034v-11.626z"/><path d="m232.248 114.674c7.424-1.436 15.417-2.224 23.752-2.224s16.328.788 23.752 2.224c8.993-7.053 14.779-18.011 14.779-30.327 0-17.422-11.566-32.137-27.437-36.902 8.251-4.09 13.925-12.593 13.925-22.426 0-13.818-11.201-25.019-25.019-25.019s-25.019 11.201-25.019 25.019c0 9.833 5.675 18.336 13.925 22.426-15.871 4.765-27.437 19.48-27.437 36.902 0 12.315 5.785 23.273 14.779 30.327z"/></svg>